# Blender v2.75 (sub 0) OBJ File: ''
# www.blender.org
mtllib roof.mtl
o Plane
v 13.756855 2.509608 -2.615820
v -9.621470 2.509608 -2.615820
v 13.756855 2.509608 20.762505
v -9.621470 2.509608 20.762505
v 13.756855 2.509608 9.073340
v 2.067692 2.509608 -2.615820
v -9.621470 2.509608 9.073342
v 2.067692 2.509608 20.762505
v 2.067692 3.370865 9.073342
v 13.756855 2.509608 3.228760
v -3.776889 2.509608 -2.615820
v -9.621470 2.509608 14.917922
v 7.912273 2.509608 20.762505
v 13.756855 2.509608 14.917922
v 7.912273 2.509608 -2.615820
v -9.621470 2.509608 3.228761
v -3.776889 2.509608 20.762505
v 2.067692 3.606292 14.917922
v 2.067692 2.509608 3.228761
v 7.912273 3.332393 9.073341
v -3.776889 4.214869 9.073342
v -3.776889 3.351383 3.228761
v 7.912273 2.509608 3.228761
v 7.912273 1.450976 14.917922
v -3.776889 3.452444 14.917922
v 13.756855 2.509608 0.306470
v -6.699180 2.509608 -2.615820
v -9.621470 2.509608 17.840214
v 10.834564 2.509608 20.762505
v 13.756855 2.509608 11.995631
v 4.989983 2.509608 -2.615820
v -9.621470 2.509608 6.151052
v -0.854598 2.509608 20.762505
v 2.067692 2.509608 17.840214
v 2.067692 2.509608 6.151052
v 10.834564 2.509608 9.073340
v -0.854598 3.661483 9.073342
v 13.756855 2.509608 6.151050
v -0.854598 2.509608 -2.615820
v -9.621470 2.509608 11.995632
v 4.989983 2.509608 20.762505
v 13.756855 2.509608 17.840214
v 10.834564 2.509608 -2.615820
v -9.621470 2.509608 0.306470
v -6.699180 2.509608 20.762505
v 2.067692 3.325831 11.995632
v 2.067692 2.509608 0.306470
v 4.989983 2.509608 9.073342
v -6.699180 2.509608 9.073342
v -3.776889 2.509608 6.151052
v -3.776889 1.814199 0.306470
v -0.854598 1.366930 3.228761
v -6.699180 2.509608 3.228761
v 7.912273 2.509608 6.151052
v 7.912273 2.509608 0.306470
v 10.834564 2.509608 3.228760
v 4.989983 2.509608 3.228761
v 7.912273 2.509608 17.840214
v 7.912273 2.509608 11.995631
v 10.834564 2.509608 14.917922
v 4.989983 2.509608 14.917922
v -3.776889 2.509608 17.840214
v -3.776889 3.311847 11.995632
v -0.854598 3.244510 14.917922
v -6.699180 2.509608 14.917922
v -6.699180 4.583717 11.995632
v -0.854598 3.155516 11.995632
v -0.854598 1.641747 17.840214
v 4.989983 2.975111 11.995632
v 10.834564 3.589900 11.995631
v 10.834564 3.427097 17.840214
v 4.989983 3.322864 0.306470
v 10.814427 3.635308 0.001153
v 10.834564 1.489437 6.151050
v -5.604281 2.509608 0.306470
v -0.854598 3.041821 0.306470
v -0.854598 2.509608 6.151052
v -6.699180 4.455332 6.151052
v 4.989983 3.873425 6.151052
v 4.989983 3.735961 17.840214
v -6.699180 4.010707 17.840214
vn -0.241400 0.939900 0.241400
vn -0.201200 0.958700 0.201200
vn -0.085400 0.992700 0.085400
vn -0.301200 0.904700 0.301200
vn 0.084800 0.895200 -0.437600
vn 0.128400 0.991400 0.023400
vn 0.000000 1.000000 -0.000000
vn 0.288000 0.913300 -0.288000
vn -0.177700 0.967900 0.177700
vn -0.136500 0.981200 0.136500
vn -0.153300 0.976200 0.153200
vn -0.325000 0.888100 0.325000
vn 0.240300 0.970200 0.030700
vn 0.145300 0.978700 -0.145300
vn 0.062200 0.997300 -0.039200
vn -0.317200 0.893800 0.317200
vn 0.053400 0.948000 0.313600
vn -0.072500 0.977900 -0.195900
vn -0.317200 0.893800 -0.317200
vn -0.090500 0.993900 -0.062800
vn 0.020500 0.995400 0.093800
vn 0.117200 0.965400 0.232700
vn -0.145300 0.978700 -0.145300
vn -0.187600 0.891700 0.411900
vn 0.166400 0.904000 0.393700
vn 0.244700 0.938200 0.244700
vn -0.060900 0.996300 0.060900
vn 0.202500 0.976700 -0.070300
vn 0.178800 0.967500 0.178800
vn 0.178800 0.967500 -0.178800
vn -0.044000 0.998100 -0.044000
vn 0.153300 0.976200 0.153200
vn 0.153200 0.976200 -0.153200
vn -0.305000 0.902200 -0.305000
vn 0.136500 0.981200 0.136500
vn 0.136500 0.981200 -0.136500
vn -0.136500 0.981200 -0.136500
vn 0.176700 0.968300 0.176700
vn 0.194700 0.961400 -0.194700
vn -0.196000 0.960800 -0.196000
vn -0.169500 0.970900 -0.169500
vn -0.169500 0.970900 0.169500
vn 0.169500 0.970900 0.169500
vn -0.029700 0.965300 -0.259500
vn 0.144300 0.985400 0.090200
vn -0.099900 0.956500 0.274100
vn 0.090300 0.991800 -0.090300
vn -0.205500 0.978300 0.027300
vn 0.047000 0.944400 -0.325300
vn -0.188400 0.963800 -0.188400
vn 0.321100 0.945800 -0.048700
vn 0.041100 0.998300 0.041100
vn 0.182500 0.966100 -0.182500
vn -0.301200 0.904700 -0.301200
vn 0.091800 0.991500 0.091800
vn 0.221600 0.949600 -0.221600
vn -0.221600 0.949600 -0.221600
vn 0.201200 0.958700 0.201200
vn 0.342100 0.875100 -0.342100
vn -0.022200 0.999500 -0.022200
vn 0.241400 0.939900 0.241400
vn 0.094700 0.991000 -0.094700
vn -0.241400 0.939900 -0.241400
usemtl None
s off
f 81//1 28//1 4//1 45//1
f 80//2 34//2 8//2 41//2
f 79//3 35//3 9//3 48//3
f 78//4 32//4 7//4 49//4
f 77//5 50//5 21//5 37//5
f 76//6 51//6 22//6 52//6
f 75//7 44//7 16//7 53//7
f 74//8 54//8 20//8 36//8
f 73//9 55//9 23//9 56//9
f 72//10 47//10 19//10 57//10
f 71//11 58//11 13//11 29//11
f 70//12 59//12 24//12 60//12
f 69//13 46//13 18//13 61//13
f 68//14 62//14 17//14 33//14
f 67//15 63//15 25//15 64//15
f 66//16 40//16 12//16 65//16
f 63//17 66//17 65//17 25//17
f 21//18 49//18 66//18 63//18
f 49//19 7//19 40//19 66//19
f 46//20 67//20 64//20 18//20
f 9//21 37//21 67//21 46//21
f 37//22 21//22 63//22 67//22
f 34//23 68//23 33//23 8//23
f 18//24 64//24 68//24 34//24
f 64//25 25//25 62//25 68//25
f 59//26 69//26 61//26 24//26
f 20//27 48//27 69//27 59//27
f 48//28 9//28 46//28 69//28
f 30//29 70//29 60//29 14//29
f 5//30 36//30 70//30 30//30
f 36//31 20//31 59//31 70//31
f 42//32 71//32 29//32 3//32
f 14//33 60//33 71//33 42//33
f 60//34 24//34 58//34 71//34
f 55//35 72//35 57//35 23//35
f 15//36 31//36 72//36 55//36
f 31//37 6//37 47//37 72//37
f 26//38 73//38 56//38 10//38
f 1//39 43//39 73//39 26//39
f 43//40 15//40 55//40 73//40
f 38//41 74//41 36//41 5//41
f 10//42 56//42 74//42 38//42
f 56//43 23//43 54//43 74//43
f 51//44 75//44 53//44 22//44
f 11//45 27//45 75//45 51//45
f 27//7 2//7 44//7 75//7
f 47//46 76//46 52//46 19//46
f 6//47 39//47 76//47 47//47
f 39//48 11//48 51//48 76//48
f 35//49 77//49 37//49 9//49
f 19//50 52//50 77//50 35//50
f 52//51 22//51 50//51 77//51
f 50//52 78//52 49//52 21//52
f 22//53 53//53 78//53 50//53
f 53//54 16//54 32//54 78//54
f 54//55 79//55 48//55 20//55
f 23//56 57//56 79//56 54//56
f 57//57 19//57 35//57 79//57
f 58//58 80//58 41//58 13//58
f 24//59 61//59 80//59 58//59
f 61//60 18//60 34//60 80//60
f 62//61 81//61 45//61 17//61
f 25//62 65//62 81//62 62//62
f 65//63 12//63 28//63 81//63
