# Blender v2.75 (sub 0) OBJ File: 'bridge.blend'
# www.blender.org
mtllib bridge.mtl
o Cube_Cube.001
v -0.245296 0.000905 0.593544
v -0.245296 0.000905 0.280579
v -0.245296 0.067200 0.280579
v 0.208463 0.000905 0.593544
v 0.208463 0.000905 0.280579
v 0.208463 0.067200 0.280579
v -0.245296 0.174348 0.170334
v 0.208463 0.174348 0.170334
v 0.208463 0.120774 0.170359
v -0.245296 0.120774 0.170359
v -0.245296 0.000905 -0.693990
v -0.245296 0.000905 -0.381024
v -0.245296 0.067200 -0.381024
v 0.208463 0.000905 -0.693990
v 0.208463 0.000905 -0.381024
v 0.208463 0.067200 -0.381024
v -0.245296 0.174348 -0.270779
v 0.208463 0.174348 -0.270779
v 0.208463 0.120774 -0.270805
v -0.245296 0.120774 -0.270805
vt 0.000000 0.000000
vt 1.000000 0.000000
vt 1.000000 1.000000
vt 0.000000 1.000000
vn 0.000000 0.925300 0.379200
vn 0.000000 0.925300 -0.379200
vn 0.000000 1.000000 0.000000
vn 0.000000 0.000000 -1.000000
vn 1.000000 0.000000 0.000000
vn 0.000000 -0.899400 -0.437200
vn -1.000000 0.000000 0.000000
vn 0.000000 0.000000 1.000000
vn 0.000000 -1.000000 0.000000
vn 0.000000 -0.899400 0.437200
usemtl bridgeTop
s off
f 8/1/1 7/2/1 1/3/1 4/4/1
f 18/1/2 14/2/2 11/3/2 17/4/2
f 18/1/3 17/4/3 7/3/3 8/2/3
usemtl bridgeStone
f 3/1/4 6/2/4 5/3/4 2/4/4
f 8/1/5 9/2/5 19/3/5 18/4/5
f 3/1/6 10/2/6 9/3/6 6/4/6
f 8/1/5 4/2/5 6/3/5 9/4/5
f 6/1/5 4/2/5 5/3/5
f 10/1/7 3/2/7 1/3/7 7/4/7
f 3/1/7 2/2/7 1/3/7
f 13/1/8 12/2/8 15/3/8 16/4/8
f 9/1/9 10/2/9 20/3/9 19/4/9
f 13/1/10 16/2/10 19/3/10 20/4/10
f 18/1/5 19/2/5 16/3/5 14/4/5
f 16/1/5 15/2/5 14/3/5
f 20/1/7 17/2/7 11/3/7 13/4/7
f 13/1/7 11/2/7 12/3/7
f 7/1/7 17/2/7 20/3/7 10/4/7
