# Blender v2.75 (sub 0) OBJ File: 'charTest.blend'
# www.blender.org
mtllib charTest.mtl
o Sphere.001
v -2.017409 9.533298 -2.456993
v -1.937904 9.525242 1.021857
v 0.519955 9.068070 2.161408
v -1.195681 7.200638 -2.481175
v -1.116176 7.192582 0.997675
v 1.234842 6.746236 -2.537773
v 1.314347 6.738180 0.941076
v 2.843636 8.624495 -2.570191
v 2.923141 8.616438 0.908659
v 2.021907 10.957154 -2.546009
v 2.101413 10.949097 0.932840
v 0.389054 9.081334 -3.566357
v -0.408615 11.411556 -2.489410
v -0.329110 11.403500 0.989439
v -2.761032 9.676337 -0.387308
v -1.672045 6.585004 -0.419355
v 1.548980 5.982812 -0.494362
v 3.681017 8.471955 -0.537323
v 2.592031 11.563288 -0.505276
v -0.628995 12.165478 -0.430269
v 0.782528 4.469553 0.782809
v 1.496870 4.804879 1.103178
v 1.301929 4.119108 -0.008516
v 2.016271 4.454433 0.311853
v 1.406930 2.927947 1.674660
v 1.857321 3.139369 1.876652
v 1.764390 2.686764 1.130057
v 2.214781 2.898186 1.332049
v -1.532188 4.112354 -0.992829
v -2.237128 4.419116 -1.359325
v -0.970535 4.543947 -1.711898
v -1.675475 4.850708 -2.078394
v -1.788698 2.725248 -2.246609
v -2.233162 2.918661 -2.477684
v -1.402159 3.022277 -2.741484
v -1.846623 3.215690 -2.972559
v 1.287900 5.306714 -0.166629
v 0.930464 5.341756 0.038695
v 1.507967 4.101276 0.518735
v 1.278633 5.520319 0.183331
v 1.151630 4.151285 0.715978
v 1.498566 4.298037 0.878705
v -1.352754 5.522176 -1.086365
v -1.364812 5.303945 -0.739590
v -1.458609 4.328020 -1.800009
v -1.714121 5.465670 -0.901618
v -1.486057 4.109376 -1.453854
v -1.826650 4.242758 -1.639829
v 0.959605 6.458445 -0.883913
v 0.615318 6.491431 -0.663095
v 1.263232 5.281525 -0.173035
v 0.958210 6.678756 -0.537729
v 0.918945 5.314512 0.047783
v 1.261837 5.501836 0.173149
v -0.683713 6.464724 -0.499267
v -0.697081 6.246742 -0.151858
v -1.348561 5.456280 -1.119254
v -0.987052 6.526723 -0.229542
v -1.368751 5.233181 -0.775495
v -1.696246 5.417471 -0.921781
v -1.167596 5.461683 -1.419612
v -1.167596 5.461684 0.210190
v -0.009197 5.461684 0.878991
v -0.588396 4.458480 -1.419612
v -0.588396 4.458481 0.210190
v 0.570003 4.458480 -1.419612
v 0.570003 4.458481 0.210190
v 1.149203 5.461683 -1.419612
v 1.149203 5.461684 0.210190
v 0.570003 6.464887 -1.419612
v 0.570003 6.464887 0.210190
v -0.009197 5.461684 -2.088414
v -0.588397 6.464887 -1.419612
v -0.588396 6.464887 0.210190
v -1.544353 5.461683 -0.458612
v -0.776775 4.132199 -0.458613
v 0.744971 4.123743 -0.603788
v 1.525960 5.461684 -0.458612
v 0.758381 6.791169 -0.458612
v -0.776775 6.791168 -0.458612
v 0.665395 3.228329 -0.529979
v 1.017226 3.293570 -0.730828
v 0.599446 4.648663 -0.693722
v 1.013141 3.288242 -0.320539
v 0.797627 4.701765 -0.338354
v 0.401266 4.595561 -0.338354
v -0.608292 3.234209 -0.562832
v -0.957887 3.310191 -0.763810
v -0.358838 4.619835 -0.540653
v -0.958170 3.284033 -0.354301
v -0.708433 4.695816 -0.741632
v -0.708716 4.669657 -0.332123
v 0.913245 1.942925 -0.440688
v 1.250795 2.001062 -0.584630
v 0.648273 3.323965 -0.536792
v 0.945886 1.960617 -0.272364
v 1.002927 3.373353 -0.737220
v 0.992977 3.401420 -0.328828
v -0.853429 1.942846 -0.535004
v -1.194175 2.004025 -0.678632
v -0.592440 3.324132 -0.596467
v -0.899933 1.913736 -0.327664
v -0.945068 3.383259 -0.797832
v -0.939189 3.391549 -0.387987
v 0.094559 0.051724 0.026555
v 0.053480 1.609350 -0.016891
v 0.330960 0.019866 -1.844780
v 1.845127 0.007691 0.299756
v 1.871177 1.577126 0.297468
v 2.163471 -0.009830 -1.525005
v 0.123952 0.995407 0.084568
v 0.198422 1.598072 -0.938664
v 0.305331 0.950262 -1.910257
v 0.171203 0.028616 -0.928423
v 1.277815 1.769383 -1.696405
v 2.238998 0.918926 -1.572830
v 1.610194 -0.014864 -3.766917
v 2.030934 1.568376 -0.618889
v 1.902036 0.937037 0.342778
v 2.003715 -0.001081 -0.608648
v 0.864721 1.899719 0.683083
v 0.951826 0.053682 0.827373
v 1.203289 1.869309 -1.260028
v 1.087459 0.013768 -0.768536
v 1.187885 1.016508 0.660866
v 2.070422 0.928160 -0.605891
v 1.548158 0.942866 -3.322454
v 0.136756 0.959496 -0.943317
v 0.089669 0.038586 -0.307250
v 1.925816 1.574133 -0.015936
v 0.093304 1.603830 -0.335711
v 1.898596 0.004677 -0.005695
v 0.951933 1.890884 0.182463
v 0.953295 0.033292 0.314008
v 1.959501 0.934235 0.030345
v 0.087184 0.976455 -0.263101
v 1.371449 0.025999 0.552056
v 1.886833 -0.012347 -2.645961
v 1.367949 1.738422 0.490276
v 1.575327 1.721132 -0.699781
v 1.545587 0.006344 -0.688592
v 1.427082 0.957882 0.524442
v 1.893577 0.930897 -2.447642
v 1.403019 0.015258 0.155332
v 1.438874 1.732508 0.083264
v 0.970577 0.002501 -2.805849
v 0.459468 1.754515 0.329127
v 0.549634 0.057358 0.443626
v 0.659070 1.735980 -0.859668
v 0.629331 0.021192 -0.848479
v 0.790794 1.028913 0.418191
v 0.926744 0.946565 -2.616355
v 0.528575 0.037361 0.016592
v 0.522618 1.747356 -0.076624
v 1.214510 2.437648 -1.271554
v 0.963154 2.459221 0.170936
v 1.586547 2.289468 -0.711308
v 1.450095 2.300846 0.071737
v 0.670292 2.304317 -0.871195
v 0.533839 2.315694 -0.088151
v 0.145863 1.600951 -0.637187
v 1.951156 0.001798 -0.307172
v 2.014961 0.931197 -0.287773
v 0.118644 0.031494 -0.626947
v 1.978375 1.571254 -0.317412
v 0.991693 0.019012 -0.219230
v 0.081295 0.962533 -0.625199
v 1.471425 0.010406 -0.263201
v 1.628350 1.724855 -0.287100
v 0.555168 0.025253 -0.423088
v 0.498684 1.743162 -0.484228
v 1.088832 2.448434 -0.550309
v 1.639571 2.293193 -0.298627
v 0.509906 2.311500 -0.495755
v -0.324326 -0.032655 0.042330
v -0.165037 1.450080 0.026044
v -0.239138 -0.058644 -1.765263
v -2.115437 0.090487 0.034930
v -2.004767 1.655464 0.058199
v -2.097197 0.021566 -1.716966
v -0.292486 0.869318 0.095507
v -0.150412 1.533174 -0.886907
v -0.147049 0.859891 -1.840816
v -0.225873 -0.031520 -0.852165
v -1.096137 1.731340 -1.795580
v -2.109754 0.943323 -1.792419
v -1.219510 -0.111324 -3.837736
v -2.007379 1.634869 -0.841844
v -2.114021 1.021771 0.061348
v -2.088253 0.065583 -0.813454
v -1.049115 1.763332 0.615836
v -1.341017 -0.005344 0.653596
v -1.079407 1.846994 -1.355956
v -1.152405 0.013253 -0.825644
v -1.423907 0.961855 0.534020
v -2.093549 1.000004 -0.832076
v -1.172285 0.858345 -3.418025
v -0.131689 0.892612 -0.876361
v -0.262669 -0.030892 -0.268300
v -2.004092 1.670693 -0.252384
v -0.153571 1.488514 -0.288537
v -2.105455 0.090251 -0.249416
v -1.049949 1.815997 0.110336
v -1.251041 0.014011 0.160130
v -2.110006 1.033135 -0.236158
v -0.203306 0.875493 -0.237192
v -1.711885 0.042379 0.319762
v -1.654119 -0.053889 -2.769612
v -1.528469 1.718681 0.332899
v -1.535594 1.750709 -0.854774
v -1.619615 0.037788 -0.818219
v -1.679586 0.955453 0.313246
v -1.640187 0.895372 -2.602889
v -1.664306 0.056141 -0.050208
v -1.528827 1.757808 -0.076659
v -0.724875 -0.088277 -2.794724
v -0.607220 1.596398 0.316632
v -0.864518 -0.019374 0.351205
v -0.607309 1.700733 -0.877768
v -0.688045 -0.009096 -0.837424
v -0.971421 0.952429 0.352278
v -0.659648 0.859086 -2.629387
v -0.767866 -0.009849 -0.046949
v -0.605579 1.646133 -0.092951
v -1.048331 2.426840 -1.374021
v -0.984072 2.407063 0.137145
v -1.495197 2.333504 -0.860808
v -1.465326 2.322878 -0.047371
v -0.571884 2.267653 -0.887077
v -0.543593 2.231390 -0.070159
v -0.147639 1.527116 -0.585377
v -2.094207 0.080295 -0.528357
v -2.097629 1.020852 -0.529415
v -0.232766 -0.029474 -0.565562
v -2.003538 1.660762 -0.545877
v -1.171209 0.025697 -0.313848
v -0.136681 0.888083 -0.569365
v -1.633217 0.054924 -0.422219
v -1.651671 1.793306 -0.465200
v -0.701220 -0.003020 -0.438413
v -0.506889 1.696187 -0.485362
v -1.011224 2.447346 -0.618343
v -1.600212 2.349464 -0.450335
v -0.463777 2.253085 -0.482014
vn -0.900200 -0.314000 -0.301700
vn -0.181300 -0.930000 -0.319600
vn 0.711500 -0.615300 -0.339300
vn 0.885500 0.315500 -0.341100
vn 0.166600 0.931500 -0.323200
vn -0.439900 -0.164100 0.882900
vn -0.436500 -0.144600 -0.888000
vn -0.069700 -0.481400 0.873700
vn -0.101600 -0.431600 -0.896300
vn 0.390200 -0.319300 0.863600
vn 0.314400 -0.285000 -0.905500
vn 0.479800 0.160100 0.862700
vn 0.395500 0.148700 -0.906300
vn 0.109500 0.477300 0.871900
vn 0.060600 0.435800 -0.898000
vn -0.350300 0.315300 0.882000
vn -0.726200 0.616800 -0.303600
vn -0.355500 0.289100 -0.888900
vn -0.672300 0.583700 0.455300
vn 0.175100 0.882400 0.436600
vn 0.857500 0.297700 0.419700
vn 0.692300 -0.585700 0.421400
vn -0.155100 -0.884500 0.440100
vn -0.837400 -0.299700 0.457000
vn -0.178100 0.851100 -0.493800
vn 0.527700 -0.417600 -0.739700
vn 0.178100 -0.851100 0.493800
vn -0.497800 0.274400 0.822800
vn -0.807300 -0.504300 -0.306500
vn 0.844200 0.365000 0.392500
vn 0.072600 0.829100 0.554300
vn 0.548400 0.356300 -0.756500
vn -0.072600 -0.829100 -0.554300
vn -0.560600 -0.495800 0.663200
vn 0.810500 -0.468100 0.352100
vn -0.829700 0.332200 -0.448600
vn -0.511500 0.352400 0.783700
vn 0.987600 0.145800 -0.058300
vn -0.469800 -0.500200 -0.727400
vn 0.142700 -0.866900 0.477600
vn -0.542600 -0.393400 0.742100
vn -0.448700 0.489600 -0.747600
vn 0.995600 -0.093400 -0.002100
vn -0.037800 -0.843500 -0.535800
vn -0.486400 0.356400 0.797800
vn 0.976500 0.183700 -0.113000
vn -0.490500 -0.539800 -0.684100
vn 0.255300 -0.815200 0.519800
vn -0.474400 -0.219800 0.852400
vn -0.422600 0.659500 -0.621700
vn 0.871100 -0.432100 -0.233500
vn -0.216200 -0.813100 -0.540400
vn -0.820000 -0.473500 -0.321500
vn -0.021800 -0.937000 -0.348700
vn 0.821800 -0.456300 -0.341200
vn 0.820000 0.473500 -0.321500
vn -0.000000 0.946900 -0.321500
vn -0.480400 -0.277400 0.832100
vn -0.480400 -0.277300 -0.832100
vn 0.000000 -0.554700 0.832100
vn 0.000000 -0.554700 -0.832100
vn 0.480400 -0.277400 0.832100
vn 0.480400 -0.277400 -0.832100
vn 0.480400 0.277400 0.832100
vn 0.480400 0.277400 -0.832100
vn 0.000000 0.554700 0.832100
vn 0.000000 0.554700 -0.832100
vn -0.480400 0.277300 0.832100
vn -0.820000 0.473500 -0.321500
vn -0.480400 0.277400 -0.832100
vn -0.778300 0.449400 0.438500
vn -0.000000 0.898700 0.438500
vn 0.778300 0.449400 0.438500
vn 0.781900 -0.479000 0.399100
vn 0.019200 -0.913200 0.407000
vn -0.778300 -0.449400 0.438500
vn 0.695100 0.114900 0.709700
vn -0.942900 -0.217500 0.252300
vn 0.248400 0.103000 -0.963200
vn -0.258800 0.965900 0.000000
vn -0.984200 0.177000 0.010600
vn 0.498300 -0.103500 0.860800
vn 0.485000 -0.073400 -0.871400
vn 0.177300 0.982100 0.062900
vn 0.911600 0.094800 0.399900
vn -0.704000 -0.016000 0.710000
vn -0.419900 -0.158900 -0.893600
vn -0.177200 0.981500 -0.071800
vn -0.923000 0.091300 0.373900
vn 0.725000 -0.026900 0.688200
vn 0.422200 -0.136700 -0.896200
vn 0.177800 0.983800 -0.022400
vn -0.984400 -0.039200 -0.171300
vn 0.954500 -0.018000 -0.297600
vn 0.981800 -0.069700 0.176900
vn -0.556500 0.064500 0.828300
vn -0.017300 -0.999800 0.006500
vn 0.649600 0.686800 -0.325900
vn -0.296200 0.949100 -0.107300
vn 0.204500 0.015800 0.978700
vn -0.313100 0.929600 -0.194400
vn 0.530500 0.005200 0.847700
vn 0.429000 0.105000 0.897200
vn -0.530200 -0.038600 0.847000
vn 0.982500 -0.071000 0.172000
vn 0.389500 0.918200 -0.071800
vn 0.982500 0.062100 0.175400
vn -0.786900 0.155300 -0.597200
vn 0.983200 0.064100 0.170800
vn -0.980400 0.095900 -0.171800
vn -0.479000 0.705100 -0.522900
vn 0.659400 0.708800 -0.250700
vn -0.512900 0.727800 -0.455200
vn -0.998600 -0.052100 -0.002700
vn -0.998100 0.011000 0.060500
vn -0.045400 -0.998000 0.043800
vn -0.022600 -0.999600 0.016800
vn 0.317600 0.947400 0.039900
vn -0.288500 0.955700 -0.057700
vn 0.318600 0.946900 0.043800
vn -0.036100 -0.998800 0.032900
vn 0.368700 0.075200 0.926500
vn 0.414700 -0.032600 0.909400
vn 0.355900 0.934500 -0.008900
vn 0.947100 0.127200 -0.294600
vn -0.284000 0.956700 -0.064000
vn -0.032000 -0.998500 0.044600
vn -0.797400 0.010400 -0.603300
vn -0.564000 -0.196100 0.802100
vn -0.998100 0.020900 0.058400
vn -0.598400 0.224000 0.769300
vn 0.306400 0.951900 0.007500
vn -0.265500 0.960400 -0.085000
vn -0.591800 -0.004700 -0.806000
vn 0.829300 -0.027700 -0.558100
vn -0.523200 0.027600 0.851700
vn 0.991600 -0.022200 -0.127200
vn 0.890200 -0.008300 0.455600
vn -0.261000 0.964700 -0.036300
vn 0.280000 0.957800 0.064700
vn -0.919500 0.010200 -0.393000
vn -0.022800 -0.999500 0.023600
vn 0.362600 0.924700 0.116100
vn -0.024900 -0.999500 0.017300
vn -0.996200 0.050900 -0.071300
vn -0.999200 -0.020500 -0.033200
vn -0.026700 -0.999300 0.025300
vn -0.018100 -0.999800 0.007700
vn -0.332400 0.942900 -0.022800
vn 0.994800 -0.101200 -0.011900
vn -0.897200 0.022200 -0.441000
vn -0.999700 -0.001200 -0.024100
vn 0.420200 -0.009400 0.907400
vn -0.057000 -0.997200 0.048300
vn -0.548200 0.703300 -0.452600
vn 0.376200 0.925600 -0.041800
vn -0.360200 -0.005000 0.932900
vn 0.395400 0.900600 -0.180500
vn -0.061900 -0.997100 0.044800
vn -0.051900 -0.998500 0.018500
vn -0.044300 -0.998100 0.041900
vn -0.661300 0.032500 0.749500
vn -0.566400 0.137700 0.812600
vn 0.421600 -0.091800 0.902100
vn -0.999900 -0.008900 0.014000
vn -0.304000 0.938900 -0.161300
vn -0.986000 0.166900 -0.000300
vn 0.871700 0.095500 -0.480600
vn -0.990900 0.134600 0.008800
vn 0.999400 0.028900 -0.016900
vn 0.994500 -0.102500 0.019500
vn 0.999700 0.023300 0.004100
vn 0.586400 0.662800 -0.465700
vn -0.574300 0.730500 -0.369400
vn 0.610300 0.685300 -0.397400
vn 0.980900 -0.131100 0.143500
vn 0.972000 -0.059600 0.227200
vn -0.987700 0.153900 -0.027600
vn -0.063600 -0.996900 -0.045600
vn -0.081100 -0.996300 -0.027700
vn -0.154000 0.983100 0.098800
vn 0.376800 0.918700 0.118700
vn -0.999100 -0.004000 -0.041100
vn -0.189600 0.979100 0.073800
vn -0.078900 -0.995600 -0.050800
vn -0.498600 0.082700 0.862900
vn -0.539300 0.000800 0.842100
vn -0.061000 -0.997700 0.030300
vn -0.275300 0.951100 -0.140100
vn -0.037900 -0.998300 0.044300
vn -0.886900 0.160600 -0.433100
vn 0.403400 0.909300 0.102100
vn -0.046100 -0.998600 -0.026200
vn 0.875800 -0.050700 -0.480100
vn 0.421700 -0.243500 0.873400
vn -0.032600 -0.998800 0.037600
vn -0.050900 -0.998700 0.010300
vn 0.973600 -0.094300 0.207700
vn 0.461800 0.099100 0.881400
vn -0.208400 0.977100 -0.042700
vn 0.352400 0.934600 -0.048900
vn 0.702800 -0.057700 -0.709000
vn -0.749500 0.032400 -0.661200
vn 0.393200 -0.081400 0.915800
vn -0.959300 0.079500 -0.270900
vn -0.945500 0.084600 0.314500
vn 0.354000 0.932900 0.065500
vn -0.168400 0.982500 0.080300
vn 0.964800 -0.068800 -0.253900
vn -0.055800 -0.998200 -0.019800
vn -0.280600 0.956000 0.086100
vn -0.073300 -0.997100 -0.021900
vn -0.999800 -0.004800 -0.016800
vn -0.990100 0.139800 -0.011300
vn 0.993300 -0.024700 0.112600
vn 0.985100 -0.086200 0.149100
vn -0.066300 -0.997300 -0.032600
vn -0.070000 -0.997500 0.012600
vn 0.422800 0.888500 0.178500
usemtl None
s off
f 15//1 1//1 4//1 16//1
f 16//2 4//2 6//2 17//2
f 17//3 6//3 8//3 18//3
f 18//4 8//4 10//4 19//4
f 19//5 10//5 13//5 20//5
f 3//6 2//6 5//6
f 1//7 12//7 4//7
f 3//8 5//8 7//8
f 4//9 12//9 6//9
f 3//10 7//10 9//10
f 6//11 12//11 8//11
f 3//12 9//12 11//12
f 8//13 12//13 10//13
f 3//14 11//14 14//14
f 10//15 12//15 13//15
f 3//16 14//16 2//16
f 20//17 13//17 1//17 15//17
f 13//18 12//18 1//18
f 14//19 20//19 15//19 2//19
f 11//20 19//20 20//20 14//20
f 9//21 18//21 19//21 11//21
f 7//22 17//22 18//22 9//22
f 5//23 16//23 17//23 7//23
f 2//24 15//24 16//24 5//24
f 22//25 24//25 23//25 21//25
f 24//26 28//26 27//26 23//26
f 28//27 26//27 25//27 27//27
f 26//28 22//28 21//28 25//28
f 21//29 23//29 27//29 25//29
f 26//30 28//30 24//30 22//30
f 30//31 29//31 31//31 32//31
f 32//32 31//32 35//32 36//32
f 36//33 35//33 33//33 34//33
f 34//34 33//34 29//34 30//34
f 29//35 33//35 35//35 31//35
f 34//36 30//36 32//36 36//36
f 42//37 40//37 38//37 41//37
f 39//38 37//38 40//38 42//38
f 38//39 37//39 39//39 41//39
f 42//40 41//40 39//40
f 48//41 47//41 44//41 46//41
f 45//42 48//42 46//42 43//42
f 44//43 47//43 45//43 43//43
f 48//44 45//44 47//44
f 54//45 52//45 50//45 53//45
f 51//46 49//46 52//46 54//46
f 50//47 49//47 51//47 53//47
f 54//48 53//48 51//48
f 60//49 59//49 56//49 58//49
f 57//50 60//50 58//50 55//50
f 56//51 59//51 57//51 55//51
f 60//52 57//52 59//52
f 75//53 61//53 64//53 76//53
f 76//54 64//54 66//54 77//54
f 77//55 66//55 68//55 78//55
f 78//56 68//56 70//56 79//56
f 79//57 70//57 73//57 80//57
f 63//58 62//58 65//58
f 61//59 72//59 64//59
f 63//60 65//60 67//60
f 64//61 72//61 66//61
f 63//62 67//62 69//62
f 66//63 72//63 68//63
f 63//64 69//64 71//64
f 68//65 72//65 70//65
f 63//66 71//66 74//66
f 70//67 72//67 73//67
f 63//68 74//68 62//68
f 80//69 73//69 61//69 75//69
f 73//70 72//70 61//70
f 74//71 80//71 75//71 62//71
f 71//72 79//72 80//72 74//72
f 69//73 78//73 79//73 71//73
f 67//74 77//74 78//74 69//74
f 65//75 76//75 77//75 67//75
f 62//76 75//76 76//76 65//76
f 86//77 84//77 82//77 85//77
f 83//78 81//78 84//78 86//78
f 82//79 81//79 83//79 85//79
f 86//80 85//80 83//80
f 92//81 91//81 88//81 90//81
f 89//82 92//82 90//82 87//82
f 88//83 91//83 89//83 87//83
f 92//84 89//84 91//84
f 98//85 96//85 94//85 97//85
f 95//86 93//86 96//86 98//86
f 94//87 93//87 95//87 97//87
f 98//88 97//88 95//88
f 104//89 103//89 100//89 102//89
f 101//90 104//90 102//90 99//90
f 100//91 103//91 101//91 99//91
f 104//92 101//92 103//92
f 128//93 113//93 107//93 114//93
f 143//94 116//94 110//94 138//94
f 135//95 119//95 108//95 132//95
f 151//96 111//96 105//96 148//96
f 141//97 138//97 110//97 120//97
f 116//98 115//98 118//98
f 171//99 149//99 112//99 161//99
f 133//100 145//100 158//100 156//100
f 112//101 149//101 123//101 115//101
f 168//97 141//97 120//97 162//97
f 170//97 150//97 124//97 166//97
f 150//97 146//97 117//97 124//97
f 142//102 125//102 122//102 137//102
f 139//103 121//103 125//103 142//103
f 147//104 106//104 111//104 151//104
f 116//105 126//105 120//105 110//105
f 115//106 123//106 140//106 118//106
f 130//107 109//107 119//107 135//107
f 152//108 127//108 117//108 146//108
f 116//109 118//109 126//109
f 113//110 128//110 112//110
f 167//93 128//93 114//93 164//93
f 161//110 112//110 128//110 167//110
f 113//111 112//111 115//111
f 115//112 116//112 143//112 127//112
f 113//113 115//113 127//113 152//113
f 106//114 131//114 136//114 111//114
f 111//115 136//115 129//115 105//115
f 165//109 130//109 135//109 163//109
f 148//116 153//116 134//116 122//116
f 137//117 144//117 132//117 108//117
f 139//118 145//118 133//118 121//118
f 147//119 154//119 131//119 106//119
f 163//105 135//105 132//105 162//105
f 109//120 130//120 145//120 139//120
f 122//121 134//121 144//121 137//121
f 109//122 139//122 142//122 119//122
f 119//123 142//123 137//123 108//123
f 166//97 124//97 141//97 168//97
f 165//124 118//124 140//124 169//124
f 124//97 117//97 138//97 141//97
f 127//125 143//125 138//125 117//125
f 121//126 133//126 154//126 147//126
f 105//127 129//127 153//127 148//127
f 113//128 152//128 146//128 107//128
f 121//129 147//129 151//129 125//129
f 114//97 107//97 146//97 150//97
f 164//97 114//97 150//97 170//97
f 171//130 154//130 160//130 174//130
f 125//131 151//131 148//131 122//131
f 173//132 157//132 155//132 172//132
f 172//133 155//133 159//133 174//133
f 123//134 149//134 159//134 155//134
f 140//135 123//135 155//135 157//135
f 154//136 133//136 156//136 160//136
f 169//137 140//137 157//137 173//137
f 145//138 169//138 173//138 158//138
f 156//139 172//139 174//139 160//139
f 158//140 173//140 172//140 156//140
f 149//141 171//141 174//141 159//141
f 129//142 164//142 170//142 153//142
f 130//143 165//143 169//143 145//143
f 134//144 166//144 168//144 144//144
f 126//105 163//105 162//105 120//105
f 118//109 165//109 163//109 126//109
f 131//145 161//145 167//145 136//145
f 136//146 167//146 164//146 129//146
f 153//147 170//147 166//147 134//147
f 144//148 168//148 162//148 132//148
f 154//149 171//149 161//149 131//149
f 198//150 184//150 177//150 183//150
f 213//151 208//151 180//151 186//151
f 205//152 202//152 178//152 189//152
f 221//153 218//153 175//153 181//153
f 211//154 190//154 180//154 208//154
f 186//155 188//155 185//155
f 241//156 231//156 182//156 219//156
f 203//157 226//157 228//157 215//157
f 182//158 185//158 193//158 219//158
f 238//159 232//159 190//159 211//159
f 240//160 236//160 194//160 220//160
f 220//161 194//161 187//161 216//161
f 212//162 207//162 192//162 195//162
f 209//163 212//163 195//163 191//163
f 217//164 221//164 181//164 176//164
f 186//165 180//165 190//165 196//165
f 185//166 188//166 210//166 193//166
f 200//167 205//167 189//167 179//167
f 222//168 216//168 187//168 197//168
f 186//169 196//169 188//169
f 183//170 182//170 198//170
f 237//171 234//171 184//171 198//171
f 231//172 237//172 198//172 182//172
f 183//173 185//173 182//173
f 185//174 197//174 213//174 186//174
f 183//175 222//175 197//175 185//175
f 176//176 181//176 206//176 201//176
f 181//177 175//177 199//177 206//177
f 235//178 233//178 205//178 200//178
f 218//179 192//179 204//179 223//179
f 207//180 178//180 202//180 214//180
f 209//181 191//181 203//181 215//181
f 217//182 176//182 201//182 224//182
f 233//183 232//183 202//183 205//183
f 179//184 209//184 215//184 200//184
f 192//185 207//185 214//185 204//185
f 179//186 189//186 212//186 209//186
f 189//187 178//187 207//187 212//187
f 236//188 238//188 211//188 194//188
f 235//189 239//189 210//189 188//189
f 194//190 211//190 208//190 187//190
f 197//191 187//191 208//191 213//191
f 191//192 217//192 224//192 203//192
f 175//193 218//193 223//193 199//193
f 183//194 177//194 216//194 222//194
f 191//195 195//195 221//195 217//195
f 184//196 220//196 216//196 177//196
f 234//197 240//197 220//197 184//197
f 241//198 244//198 230//198 224//198
f 195//199 192//199 218//199 221//199
f 243//200 242//200 225//200 227//200
f 242//201 244//201 229//201 225//201
f 193//202 225//202 229//202 219//202
f 210//203 227//203 225//203 193//203
f 224//204 230//204 226//204 203//204
f 239//205 243//205 227//205 210//205
f 215//206 228//206 243//206 239//206
f 226//207 230//207 244//207 242//207
f 228//208 226//208 242//208 243//208
f 219//209 229//209 244//209 241//209
f 199//210 223//210 240//210 234//210
f 200//211 215//211 239//211 235//211
f 204//212 214//212 238//212 236//212
f 196//213 190//213 232//213 233//213
f 188//214 196//214 233//214 235//214
f 201//215 206//215 237//215 231//215
f 206//216 199//216 234//216 237//216
f 223//217 204//217 236//217 240//217
f 214//218 202//218 232//218 238//218
f 224//219 201//219 231//219 241//219
