# Blender v2.75 (sub 0) OBJ File: ''
# www.blender.org
mtllib diamond.mtl
o Cone
v 0.000000 0.600697 -0.000000
v -0.000000 2.322663 -1.000000
v -0.866026 2.322663 0.500000
v 0.000000 4.044629 -0.000000
v 0.866025 2.322663 0.500000
vt 0.133061 0.275322
vt 0.351466 0.000168
vt 0.431198 0.342298
vt 0.000167 0.000167
vt 0.431532 0.747867
vt 0.584316 0.431533
vt 0.737099 0.747868
vt 0.498508 0.133062
vt 0.773663 0.000167
vt 0.773663 0.351466
vt 0.431532 0.431198
vt 0.000168 0.342633
vt 0.275322 0.475527
vt 0.000167 0.693931
vt 0.264796 0.694266
vt 0.264796 0.999833
vt 0.000167 0.847049
vn 0.000000 -0.278800 0.960300
vn -0.831700 -0.278800 -0.480200
vn 0.831700 -0.278800 -0.480200
vn 0.000000 0.278800 0.960300
vn -0.831700 0.278800 -0.480200
vn 0.831700 0.278800 -0.480200
vn 0.000000 -1.000000 0.000000
usemtl None
s off
f 3/1/1 1/2/1 5/3/1
f 2/4/2 1/2/2 3/1/2
f 5/5/3 1/6/3 2/7/3
f 3/8/4 5/9/4 4/10/4
f 2/11/5 3/8/5 4/10/5
f 5/12/6 2/13/6 4/14/6
f 2/15/7 5/16/7 3/17/7
