# Blender v2.75 (sub 0) OBJ File: 'mapfloor.blend'
# www.blender.org
mtllib mapfloor.mtl
o BezierCurve_Mesh
v -3.756793 0.000000 4.941420
v -3.713464 0.000000 4.777421
v -3.716921 0.000000 4.611702
v -3.759182 0.000000 4.445908
v -3.832264 0.000000 4.281682
v -3.928184 0.000000 4.120668
v -4.038960 0.000000 3.964511
v -4.156608 0.000000 3.814854
v -4.273146 0.000000 3.673341
v -4.380591 0.000000 3.541616
v -4.470962 0.000000 3.421323
v -4.536274 0.000000 3.314106
v -4.568545 0.000000 3.221610
v -4.572677 -0.000000 3.190343
v -4.578646 -0.000000 3.140492
v -4.586607 -0.000000 3.074717
v -4.596714 -0.000000 2.995675
v -4.609121 -0.000000 2.906024
v -4.623982 -0.000000 2.808424
v -4.641449 -0.000000 2.705532
v -4.661678 -0.000000 2.600006
v -4.684823 -0.000000 2.494506
v -4.711036 -0.000000 2.391689
v -4.740472 -0.000000 2.294213
v -4.740470 -0.000000 1.634551
v -4.696490 -0.000000 1.527298
v -4.696716 -0.000000 1.491612
v -4.699541 -0.000000 1.420690
v -4.703737 -0.000000 1.321259
v -4.708080 -0.000000 1.200047
v -4.711344 -0.000000 1.063783
v -4.712304 -0.000000 0.919194
v -4.709734 -0.000000 0.773008
v -4.702408 -0.000000 0.631954
v -4.689102 -0.000000 0.502758
v -4.668590 -0.000000 0.392149
v -4.639646 -0.000000 0.306855
v -4.601045 -0.000000 0.253603
v -4.591659 -0.000000 0.215697
v -4.590164 -0.000000 0.130599
v -4.594420 -0.000000 0.007607
v -4.602289 -0.000000 -0.143980
v -4.611629 -0.000000 -0.314863
v -4.620303 -0.000000 -0.495743
v -4.626169 -0.000000 -0.677322
v -4.627089 -0.000000 -0.850300
v -4.620923 -0.000000 -1.005378
v -4.605531 -0.000000 -1.133257
v -4.578774 -0.000000 -1.224639
v -4.538512 -0.000000 -1.270225
v -4.524792 -0.000000 -1.293410
v -4.521425 -0.000000 -1.343324
v -4.525873 -0.000000 -1.414813
v -4.535601 -0.000000 -1.502721
v -4.548069 -0.000000 -1.601896
v -4.560743 -0.000000 -1.707183
v -4.571085 -0.000000 -1.813426
v -4.576558 -0.000000 -1.915473
v -4.574624 -0.000000 -2.008167
v -4.562747 -0.000000 -2.086356
v -4.538391 -0.000000 -2.144884
v -4.499018 -0.000000 -2.178597
v -4.480238 -0.000000 -2.202404
v -4.462845 -0.000000 -2.254016
v -4.446028 -0.000000 -2.328032
v -4.428978 -0.000000 -2.419045
v -4.410884 -0.000000 -2.521654
v -4.390938 -0.000000 -2.630454
v -4.368330 -0.000000 -2.740041
v -4.342249 -0.000000 -2.845013
v -4.311886 -0.000000 -2.939965
v -4.276433 -0.000000 -3.019494
v -4.235077 -0.000000 -3.078196
v -4.187012 -0.000000 -3.110667
v -4.106336 -0.000000 -3.144351
v -4.029420 -0.000000 -3.187205
v -3.955427 -0.000000 -3.236330
v -3.883516 -0.000000 -3.288823
v -3.812850 -0.000000 -3.341784
v -3.742589 -0.000000 -3.392312
v -3.671896 -0.000000 -3.437504
v -3.599932 -0.000000 -3.474462
v -3.525857 -0.000000 -3.500283
v -3.448834 -0.000000 -3.512065
v -3.368024 -0.000000 -3.506910
v -3.282588 -0.000000 -3.481914
v -3.184176 -0.000000 -3.459417
v -3.044315 -0.000000 -3.450061
v -2.871078 -0.000000 -3.449337
v -2.672537 -0.000000 -3.452733
v -2.456765 -0.000000 -3.455738
v -2.231835 -0.000000 -3.453843
v -2.005819 -0.000000 -3.442536
v -1.786789 -0.000000 -3.417307
v -1.582819 -0.000000 -3.373647
v -1.401980 -0.000000 -3.307045
v -1.252346 -0.000000 -3.212988
v -1.141989 -0.000000 -3.086969
v -1.070856 -0.000000 -3.042098
v -0.948477 -0.000000 -3.039140
v -0.784340 -0.000000 -3.068471
v -0.587933 -0.000000 -3.120469
v -0.368744 -0.000000 -3.185507
v -0.136261 -0.000000 -3.253964
v 0.100030 -0.000000 -3.316215
v 0.330639 -0.000000 -3.362637
v 0.546080 -0.000000 -3.383605
v 0.736864 -0.000000 -3.369497
v 0.893503 -0.000000 -3.310687
v 1.006510 -0.000000 -3.197553
v 1.074309 -0.000000 -3.150205
v 1.187408 -0.000000 -3.138900
v 1.337406 -0.000000 -3.152645
v 1.515900 -0.000000 -3.180442
v 1.714489 -0.000000 -3.211299
v 1.924770 -0.000000 -3.234219
v 2.138342 -0.000000 -3.238207
v 2.346803 -0.000000 -3.212268
v 2.541749 -0.000000 -3.145407
v 2.714780 -0.000000 -3.026628
v 2.857493 -0.000000 -2.844937
v 2.961486 -0.000000 -2.589339
v 2.978277 -0.000000 -2.509160
v 2.986696 -0.000000 -2.422112
v 2.986921 -0.000000 -2.329998
v 2.979130 -0.000000 -2.234620
v 2.963500 -0.000000 -2.137780
v 2.940207 -0.000000 -2.041281
v 2.909430 -0.000000 -1.946926
v 2.871346 -0.000000 -1.856515
v 2.826131 -0.000000 -1.771853
v 2.773963 -0.000000 -1.694742
v 2.715021 -0.000000 -1.626984
v 2.649480 -0.000000 -1.570382
v 2.563465 -0.000000 -1.483757
v 2.509968 -0.000000 -1.378348
v 2.485147 -0.000000 -1.258107
v 2.485157 -0.000000 -1.126986
v 2.506156 -0.000000 -0.988934
v 2.544302 -0.000000 -0.847904
v 2.595750 -0.000000 -0.707846
v 2.656660 -0.000000 -0.572711
v 2.723186 -0.000000 -0.446452
v 2.791488 -0.000000 -0.333018
v 2.857721 -0.000000 -0.236361
v 2.918043 -0.000000 -0.160430
v 2.973252 -0.000000 -0.078755
v 3.008842 -0.000000 0.013064
v 3.028565 -0.000000 0.112968
v 3.036177 -0.000000 0.218898
v 3.035432 -0.000000 0.328796
v 3.030083 -0.000000 0.440604
v 3.023886 -0.000000 0.552261
v 3.020594 -0.000000 0.661711
v 3.023962 -0.000000 0.766893
v 3.037743 -0.000000 0.865750
v 3.065693 -0.000000 0.956222
v 3.111566 -0.000000 1.036252
v 3.184930 -0.000000 1.124337
v 3.279747 -0.000000 1.226896
v 3.390515 -0.000000 1.342465
v 3.511734 -0.000000 1.469581
v 3.637903 -0.000000 1.606780
v 3.763522 -0.000000 1.752601
v 3.883090 -0.000000 1.905578
v 3.991108 -0.000000 2.064250
v 4.082075 -0.000000 2.227153
v 4.150490 -0.000000 2.392824
v 4.190853 -0.000000 2.559799
v 4.197663 -0.000000 2.726615
v 4.190886 -0.000000 2.806977
v 4.180028 -0.000000 2.887413
v 4.162086 -0.000000 2.969388
v 4.134058 -0.000000 3.054367
v 4.092944 -0.000000 3.143814
v 4.035741 -0.000000 3.239194
v 3.959450 -0.000000 3.341971
v 3.861068 -0.000000 3.453610
v 3.737594 -0.000000 3.575577
v 3.586026 -0.000000 3.709335
v 3.403364 -0.000000 3.856349
v 3.186605 -0.000000 4.018084
v 3.130785 -0.000000 4.066967
v 3.089815 -0.000000 4.119775
v 3.060276 -0.000000 4.175249
v 3.038746 -0.000000 4.232130
v 3.021803 -0.000000 4.289160
v 3.006026 -0.000000 4.345079
v 2.987995 -0.000000 4.398631
v 2.964287 -0.000000 4.448555
v 2.931481 -0.000000 4.493592
v 2.886157 -0.000000 4.532485
v 2.824893 -0.000000 4.563975
v 2.744267 -0.000000 4.586804
v 2.667776 -0.000000 4.595964
v 2.583333 -0.000000 4.595652
v 2.493010 -0.000000 4.586772
v 2.398875 -0.000000 4.570232
v 2.302997 -0.000000 4.546938
v 2.207447 -0.000000 4.517795
v 2.114293 -0.000000 4.483708
v 2.025605 -0.000000 4.445585
v 1.943453 -0.000000 4.404332
v 1.869906 -0.000000 4.360854
v 1.807034 -0.000000 4.316057
v 1.756906 -0.000000 4.270848
v 1.702929 -0.000000 4.212795
v 1.642625 -0.000000 4.146515
v 1.576768 -0.000000 4.074950
v 1.506131 -0.000000 4.001042
v 1.431486 -0.000000 3.927733
v 1.353606 -0.000000 3.857964
v 1.273265 -0.000000 3.794677
v 1.191236 -0.000000 3.740813
v 1.108292 -0.000000 3.699316
v 1.025205 -0.000000 3.673125
v 0.942750 -0.000000 3.665183
v 0.861698 -0.000000 3.678431
v 0.795453 -0.000000 3.704203
v 0.735619 -0.000000 3.737235
v 0.680744 -0.000000 3.776126
v 0.629377 -0.000000 3.819478
v 0.580066 -0.000000 3.865891
v 0.531359 -0.000000 3.913966
v 0.481807 -0.000000 3.962304
v 0.429956 -0.000000 4.009504
v 0.374356 -0.000000 4.054168
v 0.313555 -0.000000 4.094896
v 0.246102 -0.000000 4.130289
v 0.170545 -0.000000 4.158947
v 0.099763 -0.000000 4.164671
v 0.024902 -0.000000 4.144033
v -0.057617 -0.000000 4.105350
v -0.151370 -0.000000 4.056932
v -0.259934 -0.000000 4.007097
v -0.386887 -0.000000 3.964157
v -0.535804 -0.000000 3.936427
v -0.710264 -0.000000 3.932221
v -0.913842 -0.000000 3.959854
v -1.150117 -0.000000 4.027639
v -1.422665 -0.000000 4.143891
v -1.735063 -0.000000 4.316925
v -1.782962 -0.000000 4.357531
v -1.805346 -0.000000 4.402819
v -1.807570 -0.000000 4.452686
v -1.794991 -0.000000 4.507027
v -1.772965 -0.000000 4.565739
v -1.746848 -0.000000 4.628716
v -1.721996 -0.000000 4.695857
v -1.703765 -0.000000 4.767056
v -1.697512 -0.000000 4.842209
v -1.708592 -0.000000 4.921214
v -1.742362 -0.000000 5.003964
v -1.804178 -0.000000 5.090358
v -1.854447 -0.000000 5.142087
v -1.908545 -0.000000 5.187526
v -1.966545 -0.000000 5.226926
v -2.028518 -0.000000 5.260539
v -2.094535 -0.000000 5.288614
v -2.164668 -0.000000 5.311401
v -2.238988 -0.000000 5.329153
v -2.317567 -0.000000 5.342117
v -2.400477 -0.000000 5.350545
v -2.487788 -0.000000 5.354688
v -2.579573 -0.000000 5.354796
v -2.675902 -0.000000 5.351119
v -2.762671 -0.000000 5.349190
v -2.872317 -0.000000 5.349846
v -2.998157 -0.000000 5.350555
v -3.133508 -0.000000 5.348783
v -3.271688 -0.000000 5.342000
v -3.406013 -0.000000 5.327671
v -3.529802 -0.000000 5.303264
v -3.636371 -0.000000 5.266246
v -3.719037 -0.000000 5.214086
v -3.771118 -0.000000 5.144250
v -3.785931 -0.000000 5.054205
v 2.216117 -0.000000 -3.014720
v 2.164451 -0.000000 -2.823251
v 2.164451 -0.000000 -2.598350
v 2.279940 -0.000000 -2.370410
v 2.465332 -0.000000 -2.172862
v 2.583860 -0.000000 -1.972275
v 2.744938 -0.000000 -1.868942
v 2.744938 -0.000000 -1.868942
vn 0.000000 1.000000 0.000000
usemtl None
s off
f 1//1 277//1 276//1 275//1 274//1 273//1 272//1 271//1 270//1 269//1 268//1 267//1 266//1 265//1 264//1 263//1 262//1 261//1 260//1 259//1 258//1 257//1 256//1 255//1 254//1 253//1 252//1 251//1 250//1 249//1 248//1 247//1 246//1 245//1 244//1 243//1 242//1 241//1 240//1 239//1 238//1 237//1 236//1 235//1 234//1 233//1 232//1 231//1 230//1 229//1 228//1 227//1 226//1 225//1 224//1 223//1 222//1 221//1 220//1 219//1 218//1 217//1 216//1 215//1 214//1 213//1 212//1 211//1 210//1 209//1 208//1 207//1 206//1 205//1 204//1 203//1 202//1 201//1 200//1 199//1 198//1 197//1 196//1 195//1 194//1 193//1 192//1 191//1 190//1 189//1 188//1 187//1 186//1 185//1 184//1 183//1 182//1 181//1 180//1 179//1 178//1 177//1 176//1 175//1 174//1 173//1 172//1 171//1 170//1 169//1 168//1 167//1 166//1 165//1 164//1 163//1 162//1 161//1 160//1 159//1 158//1 157//1 156//1 155//1 154//1 153//1 152//1 151//1 150//1 149//1 148//1 147//1 146//1 145//1 144//1 143//1 142//1 141//1 140//1 139//1 138//1 137//1 136//1 135//1 134//1 133//1 132//1 131//1 130//1 129//1 128//1 127//1 126//1 125//1 124//1 123//1 122//1 121//1 120//1 119//1 118//1 117//1 116//1 115//1 114//1 113//1 112//1 111//1 110//1 109//1 108//1 107//1 106//1 105//1 104//1 103//1 102//1 101//1 100//1 99//1 98//1 97//1 96//1 95//1 94//1 93//1 92//1 91//1 90//1 89//1 88//1 87//1 86//1 85//1 84//1 83//1 82//1 81//1 80//1 79//1 78//1 77//1 76//1 75//1 74//1 73//1 72//1 71//1 70//1 69//1 68//1 67//1 66//1 65//1 64//1 63//1 62//1 61//1 60//1 59//1 58//1 57//1 56//1 55//1 54//1 53//1 52//1 51//1 50//1 49//1 48//1 47//1 46//1 45//1 44//1 43//1 42//1 41//1 40//1 39//1 38//1 37//1 36//1 35//1 34//1 33//1 32//1 31//1 30//1 29//1 28//1 27//1 26//1 25//1 24//1 23//1 22//1 21//1 20//1 19//1 18//1 17//1 16//1 15//1 14//1 13//1 12//1 11//1 10//1 9//1 8//1 7//1 6//1 5//1 4//1 3//1 2//1
l 118 278
l 278 279
l 279 280
l 280 281
l 281 282
l 282 283
l 283 284
l 284 285
l 130 285
o BezierCurve.001_Mesh.001
v -5.518631 0.247775 1.806694
v -5.415689 0.247775 1.744779
v -5.342756 0.247775 1.706089
v -5.292892 0.247775 1.687053
v -5.259157 0.247775 1.684099
v -5.234615 0.247775 1.693656
v -5.212327 0.247775 1.712154
v -5.185353 0.247775 1.736020
v -5.146756 0.247775 1.761684
v -5.089597 0.247775 1.785575
v -5.006938 0.247775 1.804121
v -4.891840 0.247775 1.813751
v -4.737364 0.247775 1.810894
v -4.475760 0.247775 1.805421
v -4.262901 0.247775 1.820649
v -4.090279 0.247775 1.853531
v -3.949383 0.247775 1.901019
v -3.831704 0.247775 1.960064
v -3.728732 0.247775 2.027618
v -3.631956 0.247775 2.100634
v -3.532867 0.247775 2.176063
v -3.422955 0.247775 2.250857
v -3.293710 0.247775 2.321968
v -3.136622 0.247775 2.386348
v -2.943181 0.247775 2.440948
v -2.676306 0.247775 2.482806
v -2.423816 0.247775 2.487789
v -2.185147 0.247775 2.461831
v -1.959732 0.247775 2.410867
v -1.747007 0.247775 2.340832
v -1.546407 0.247775 2.257660
v -1.357366 0.247775 2.167286
v -1.179320 0.247775 2.075645
v -1.011703 0.247775 1.988670
v -0.853951 0.247775 1.912297
v -0.705498 0.247775 1.852461
v -0.565779 0.247775 1.815095
v -0.337236 0.247775 1.786407
v -0.140685 0.247775 1.785395
v 0.028625 0.247775 1.808072
v 0.175442 0.247775 1.850448
v 0.304516 0.247775 1.908533
v 0.420596 0.247775 1.978340
v 0.528431 0.247775 2.055880
v 0.632771 0.247775 2.137162
v 0.738366 0.247775 2.218199
v 0.849963 0.247775 2.295002
v 0.972312 0.247775 2.363580
v 1.110164 0.247775 2.419947
v 1.155093 0.247775 2.433182
v 1.211111 0.247775 2.444414
v 1.276871 0.247775 2.449760
v 1.351025 0.247775 2.445338
v 1.432223 0.247775 2.427266
v 1.519119 0.247775 2.391662
v 1.610364 0.247775 2.334644
v 1.704611 0.247775 2.252331
v 1.800510 0.247775 2.140839
v 1.896715 0.247775 1.996287
v 1.991876 0.247775 1.814794
v 2.084647 0.247775 1.592476
v 2.105645 0.247775 1.490250
v 2.094995 0.247775 1.392384
v 2.060050 0.247775 1.296588
v 2.008163 0.247775 1.200574
v 1.946688 0.247775 1.102053
v 1.882977 0.247775 0.998735
v 1.824384 0.247775 0.888332
v 1.778263 0.247775 0.768553
v 1.751966 0.247775 0.637110
v 1.752848 0.247775 0.491714
v 1.788260 0.247775 0.330076
v 1.865556 0.247775 0.149906
v 1.904060 0.247775 0.064442
v 1.926687 0.247775 -0.013970
v 1.935936 0.247775 -0.086259
v 1.934305 0.247775 -0.153352
v 1.924290 0.247775 -0.216177
v 1.908390 0.247775 -0.275662
v 1.889102 0.247775 -0.332735
v 1.868925 0.247775 -0.388323
v 1.850354 0.247775 -0.443355
v 1.835889 0.247775 -0.498759
v 1.828027 0.247775 -0.555462
v 1.829266 0.247775 -0.614392
v 1.829314 0.247775 -0.707266
v 1.810533 0.247775 -0.789645
v 1.776972 0.247775 -0.862884
v 1.732686 0.247775 -0.928336
v 1.681724 0.247775 -0.987356
v 1.628139 0.247775 -1.041299
v 1.575984 0.247775 -1.091518
v 1.529308 0.247775 -1.139368
v 1.492166 0.247775 -1.186203
v 1.468608 0.247775 -1.233378
v 1.462686 0.247775 -1.282247
v 1.478452 0.247775 -1.334165
v 1.507904 0.247775 -1.407272
v 1.510952 0.247775 -1.459196
v 1.491877 0.247775 -1.493735
v 1.454958 0.247775 -1.514683
v 1.404476 0.247775 -1.525840
v 1.344711 0.247775 -1.531001
v 1.279943 0.247775 -1.533964
v 1.214451 0.247775 -1.538524
v 1.152517 0.247775 -1.548480
v 1.098421 0.247775 -1.567628
v 1.056442 0.247775 -1.599765
v 1.030862 0.247775 -1.648688
v 1.008430 0.247775 -1.730289
v 0.988394 0.247775 -1.799994
v 0.969746 0.247775 -1.859121
v 0.951479 0.247775 -1.908986
v 0.932585 0.247775 -1.950907
v 0.912058 0.247775 -1.986201
v 0.888891 0.247775 -2.016185
v 0.862075 0.247775 -2.042177
v 0.830605 0.247775 -2.065495
v 0.793473 0.247775 -2.087454
v 0.749671 0.247775 -2.109373
v 0.698194 0.247775 -2.132569
v 0.581114 0.247775 -2.193188
v 0.498641 0.247775 -2.256211
v 0.446341 0.247775 -2.321156
v 0.419776 0.247775 -2.387542
v 0.414510 0.247775 -2.454888
v 0.426108 0.247775 -2.522714
v 0.450134 0.247775 -2.590540
v 0.482151 0.247775 -2.657883
v 0.517724 0.247775 -2.724265
v 0.552417 0.247775 -2.789203
v 0.581793 0.247775 -2.852217
v 0.601417 0.247775 -2.912827
v 0.616605 0.247775 -3.006788
v 0.620980 0.247775 -3.097485
v 0.616958 0.247775 -3.184786
v 0.606954 0.247775 -3.268559
v 0.593383 0.247775 -3.348672
v 0.578661 0.247775 -3.424993
v 0.565203 0.247775 -3.497391
v 0.555425 0.247775 -3.565733
v 0.551742 0.247775 -3.629888
v 0.556570 0.247775 -3.689724
v 0.572323 0.247775 -3.745109
v 0.601417 0.247775 -3.795910
v 0.709321 0.247775 -3.848592
v 0.892212 0.247775 -3.841262
v 1.134616 0.247775 -3.785290
v 1.421057 0.247775 -3.692044
v 1.736059 0.247775 -3.572894
v 2.064146 0.247775 -3.439207
v 2.389843 0.247775 -3.302353
v 2.697675 0.247775 -3.173700
v 2.972166 0.247775 -3.064617
v 3.197839 0.247775 -2.986472
v 3.359221 0.247775 -2.950635
v 3.440833 0.247775 -2.968473
v 3.487967 0.247775 -3.008512
v 3.502004 0.247775 -2.965410
v 3.487649 0.247775 -2.853770
v 3.449608 0.247775 -2.688195
v 3.392588 0.247775 -2.483288
v 3.321292 0.247775 -2.253650
v 3.240428 0.247775 -2.013885
v 3.154701 0.247775 -1.778595
v 3.068816 0.247775 -1.562383
v 2.987479 0.247775 -1.379852
v 2.915396 0.247775 -1.245604
v 2.857272 0.247775 -1.174241
v 2.820247 0.247775 -1.150525
v 2.782152 0.247775 -1.130663
v 2.742636 0.247775 -1.113933
v 2.701347 0.247775 -1.099613
v 2.657934 0.247775 -1.086982
v 2.612044 0.247775 -1.075318
v 2.563327 0.247775 -1.063899
v 2.511431 0.247775 -1.052004
v 2.456004 0.247775 -1.038910
v 2.396694 0.247775 -1.023897
v 2.333151 0.247775 -1.006243
v 2.265021 0.247775 -0.985225
v 2.179599 0.247775 -0.937952
v 2.125779 0.247775 -0.866288
v 2.098166 0.247775 -0.774955
v 2.091369 0.247775 -0.668675
v 2.099991 0.247775 -0.552169
v 2.118639 0.247775 -0.430158
v 2.141919 0.247775 -0.307366
v 2.164437 0.247775 -0.188513
v 2.180799 0.247775 -0.078321
v 2.185612 0.247775 0.018489
v 2.173480 0.247775 0.097193
v 2.139010 0.247775 0.153072
v 2.066832 0.247775 0.222099
v 2.010087 0.247775 0.284598
v 1.967396 0.247775 0.341665
v 1.937378 0.247775 0.394394
v 1.918652 0.247775 0.443881
v 1.909838 0.247775 0.491221
v 1.909556 0.247775 0.537510
v 1.916424 0.247775 0.583844
v 1.929063 0.247775 0.631317
v 1.946092 0.247775 0.681025
v 1.966130 0.247775 0.734063
v 1.987797 0.247775 0.791527
v 2.017157 0.247775 0.864317
v 2.049111 0.247775 0.931656
v 2.082884 0.247775 0.994416
v 2.117700 0.247775 1.053470
v 2.152781 0.247775 1.109691
v 2.187354 0.247775 1.163950
v 2.220641 0.247775 1.217121
v 2.251866 0.247775 1.270077
v 2.280253 0.247775 1.323688
v 2.305026 0.247775 1.378829
v 2.325409 0.247775 1.436371
v 2.340627 0.247775 1.497187
v 2.353476 0.247775 1.575449
v 2.365873 0.247775 1.683350
v 2.374753 0.247775 1.813878
v 2.377048 0.247775 1.960019
v 2.369692 0.247775 2.114760
v 2.349618 0.247775 2.271090
v 2.313760 0.247775 2.421995
v 2.259052 0.247775 2.560462
v 2.182426 0.247775 2.679480
v 2.080817 0.247775 2.772034
v 1.951157 0.247775 2.831112
v 1.790380 0.247775 2.849702
v 1.735189 0.247775 2.843744
v 1.695484 0.247775 2.829813
v 1.666288 0.247775 2.809460
v 1.642626 0.247775 2.784238
v 1.619521 0.247775 2.755700
v 1.591994 0.247775 2.725399
v 1.555071 0.247775 2.694885
v 1.503775 0.247775 2.665713
v 1.433127 0.247775 2.639434
v 1.338153 0.247775 2.617600
v 1.213876 0.247775 2.601765
v 1.055318 0.247775 2.593481
v 0.995797 0.247775 2.594083
v 0.944339 0.247775 2.597023
v 0.897820 0.247775 2.599639
v 0.853115 0.247775 2.599267
v 0.807099 0.247775 2.593245
v 0.756648 0.247775 2.578911
v 0.698638 0.247775 2.553602
v 0.629944 0.247775 2.514655
v 0.547442 0.247775 2.459409
v 0.448008 0.247775 2.385200
v 0.328516 0.247775 2.289366
v 0.185844 0.247775 2.169245
v 0.124741 0.247775 2.132329
v 0.040915 0.247775 2.106325
v -0.063560 0.247775 2.092189
v -0.186610 0.247775 2.090874
v -0.326163 0.247775 2.103336
v -0.480144 0.247775 2.130528
v -0.646480 0.247775 2.173406
v -0.823098 0.247775 2.232923
v -1.007923 0.247775 2.310035
v -1.198882 0.247775 2.405697
v -1.393901 0.247775 2.520862
v -1.590908 0.247775 2.656486
v -1.668573 0.247775 2.690628
v -1.791796 0.247775 2.716165
v -1.951666 0.247775 2.733150
v -2.139271 0.247775 2.741632
v -2.345702 0.247775 2.741662
v -2.562045 0.247775 2.733290
v -2.779392 0.247775 2.716569
v -2.988830 0.247775 2.691547
v -3.181448 0.247775 2.658276
v -3.348336 0.247775 2.616806
v -3.480583 0.247775 2.567189
v -3.569277 0.247775 2.509473
v -3.625142 0.247775 2.460621
v -3.697917 0.247775 2.405682
v -3.784808 0.247775 2.347449
v -3.883022 0.247775 2.288713
v -3.989766 0.247775 2.232264
v -4.102247 0.247775 2.180894
v -4.217671 0.247775 2.137394
v -4.333246 0.247775 2.104556
v -4.446177 0.247775 2.085171
v -4.553671 0.247775 2.082029
v -4.652936 0.247775 2.097922
v -4.741177 0.247775 2.135642
v -4.799737 0.247775 2.164374
v -4.863808 0.247775 2.184205
v -4.931750 0.247775 2.196028
v -5.001924 0.247775 2.200735
v -5.072688 0.247775 2.199220
v -5.142404 0.247775 2.192376
v -5.209431 0.247775 2.181098
v -5.272129 0.247775 2.166276
v -5.328858 0.247775 2.148807
v -5.377980 0.247775 2.129581
v -5.417853 0.247775 2.109494
v -5.446837 0.247775 2.089437
v -5.492777 0.247775 2.050581
v -5.532374 0.247775 2.017576
v -5.565351 0.247775 1.989501
v -5.591432 0.247775 1.965436
v -5.610339 0.247775 1.944459
v -5.621798 0.247775 1.925648
v -5.625530 0.247775 1.908083
v -5.621261 0.247775 1.890842
v -5.608712 0.247775 1.873004
v -5.587609 0.247775 1.853647
v -5.557673 0.247775 1.831851
vn 0.000000 -1.000000 0.000000
vn -0.000000 1.000000 0.000000
usemtl None
s off
f 421//2 420//2 422//2
f 286//3 597//3 596//3 595//3 594//3 593//3 592//3 591//3 590//3 589//3 588//3 587//3 586//3 585//3 584//3 583//3 582//3 581//3 580//3 579//3 578//3 577//3 576//3 575//3 574//3 573//3 572//3 571//3 570//3 569//3 568//3 567//3 566//3 565//3 564//3 563//3 562//3 561//3 560//3 559//3 558//3 557//3 556//3 555//3 554//3 553//3 552//3 551//3 550//3 549//3 548//3 547//3 546//3 545//3 544//3 543//3 542//3 541//3 540//3 539//3 538//3 537//3 536//3 535//3 534//3 533//3 532//3 531//3 530//3 529//3 528//3 527//3 526//3 525//3 524//3 523//3 522//3 521//3 520//3 519//3 518//3 517//3 516//3 515//3 514//3 513//3 512//3 511//3 510//3 509//3 508//3 507//3 506//3 505//3 504//3 503//3 502//3 501//3 500//3 499//3 498//3 497//3 496//3 495//3 494//3 493//3 492//3 491//3 490//3 489//3 488//3 487//3 486//3 485//3 484//3 483//3 482//3 481//3 480//3 479//3 478//3 477//3 476//3 475//3 474//3 473//3 472//3 471//3 470//3 469//3 468//3 467//3 466//3 465//3 464//3 463//3 462//3 461//3 460//3 459//3 458//3 457//3 456//3 455//3 454//3 453//3 452//3 451//3 450//3 449//3 448//3 447//3 446//3 445//3 444//3 443//3 442//3 441//3 440//3 439//3 438//3 437//3 436//3 435//3 434//3 433//3 432//3 431//3 430//3 429//3 428//3 427//3 426//3 425//3 424//3 423//3 422//3 420//3 419//3 418//3 417//3 416//3 415//3 414//3 413//3 412//3 411//3 410//3 409//3 408//3 407//3 406//3 405//3 404//3 403//3 402//3 401//3 400//3 399//3 398//3 397//3 396//3 395//3 394//3 393//3 392//3 391//3 390//3 389//3 388//3 387//3 386//3 385//3 384//3 383//3 382//3 381//3 380//3 379//3 378//3 377//3 376//3 375//3 374//3 373//3 372//3 371//3 370//3 369//3 368//3 367//3 366//3 365//3 364//3 363//3 362//3 361//3 360//3 359//3 358//3 357//3 356//3 355//3 354//3 353//3 352//3 351//3 350//3 349//3 348//3 347//3 346//3 345//3 344//3 343//3 342//3 341//3 340//3 339//3 338//3 337//3 336//3 335//3 334//3 333//3 332//3 331//3 330//3 329//3 328//3 327//3 326//3 325//3 324//3 323//3 322//3 321//3 320//3 319//3 318//3 317//3 316//3 315//3 314//3 313//3 312//3 311//3 310//3 309//3 308//3 307//3 306//3 305//3 304//3 303//3 302//3 301//3 300//3 299//3 298//3 297//3 296//3 295//3 294//3 293//3 292//3 291//3 290//3 289//3 288//3 287//3
