# Blender v2.75 (sub 0) OBJ File: 'tree.blend'
# www.blender.org
mtllib tree.mtl
o Cube_Cube.001
v -1.000000 0.980773 1.000000
v -1.000000 0.980773 -1.000000
v 1.000000 0.980773 1.000000
v 1.000000 0.980773 -1.000000
v 0.000000 5.980773 0.000000
vt 0.000000 0.000000
vt 1.000000 0.000000
vt 0.496032 0.998031
vt 0.503906 0.994094
vt 1.000000 1.000000
vt 0.000000 1.000000
vn -0.980600 0.196100 0.000000
vn 0.000000 0.196100 0.980600
vn 0.980600 0.196100 0.000000
vn 0.000000 0.196100 -0.980600
vn 0.000000 -1.000000 0.000000
usemtl Material.001
s off
f 2/1/1 1/2/1 5/3/1
f 1/1/2 3/2/2 5/3/2
f 3/1/3 4/2/3 5/3/3
f 2/1/4 5/2/4 4/4/4
f 2/1/5 4/2/5 3/5/5 1/6/5
o Cone
v 0.000000 -0.385016 -0.331364
v 0.286970 -0.385016 0.165682
v 0.000000 0.976542 -0.331364
v -0.286970 -0.385016 0.165682
v 0.286970 0.976542 0.165682
v -0.286970 0.976542 0.165682
vt 1.000001 0.000001
vt 0.999999 1.000001
vt -0.000001 0.999999
vt 0.000001 -0.000001
vt 1.003905 1.005922
vn -0.866000 0.000000 -0.500000
vn -0.000000 0.000000 1.000000
vn 0.866000 0.000000 -0.500000
usemtl bark
s off
f 9/7/6 11/8/6 8/9/6 6/10/6
f 7/7/7 10/8/7 11/9/7 9/10/7
f 6/7/8 8/11/8 10/9/8 7/10/8
